Coordinates
nRows=128
nColumns=2
inDegrees=yes
endheader
time	ankle_angle_r	
2	 -5.202467	
2.0625	 -5.194806	
2.125	 -5.207806	
2.1875	 -5.199219	
2.25	 -5.191191	
2.3125	 -5.189536	
2.375	 -5.174811	
2.4375	 -5.197140	
2.5	 -5.232857	
2.5625	 -5.224871	
2.625	 -5.213425	
2.6875	 -5.199796	
2.75	 -5.185816	
2.8125	 -5.215942	
2.875	 -5.247221	
2.9375	 -5.259277	
3	 -5.279801	
3.0625	 -5.295124	
3.125	 -5.305834	
3.1875	 -5.293370	
3.25	 -5.259264	
3.3125	 -5.246856	
3.375	 -5.235935	
3.4375	 -5.236647	
3.5	 -5.273758	
3.5625	 -5.294048	
3.625	 -5.292184	
3.6875	 -5.284623	
3.75	 -5.251665	
3.8125	 -5.215392	
3.875	 -5.205661	
3.9375	 -5.224967	
4	 -5.249841	
4.0625	 -5.235106	
4.125	 -5.195318	
4.1875	 -5.178082	
4.25	 -5.171813	
4.3125	 -5.159556	
4.375	 -5.149866	
4.4375	 -5.157849	
4.5	 -5.182175	
4.5625	 -5.171369	
4.625	 -5.152299	
4.6875	 -5.191180	
4.75	 -5.197215	
4.8125	 -5.159643	
4.875	 -5.191565	
4.9375	 -5.231016	
5	 -5.221092	
5.0625	 -5.207219	
5.125	 -5.205764	
5.1875	 -5.233891	
5.25	 -5.224475	
5.3125	 -5.160109	
5.375	 -5.148528	
5.4375	 -5.175990	
5.5	 -5.200314	
5.5625	 -5.236119	
5.625	 -5.255115	
5.6875	 -5.262618	
5.75	 -5.250856	
5.8125	 -5.182373	
5.875	 -5.144003	
5.9375	 -5.182052	
6	 -5.187838	
6.0625	 -5.164566	
6.125	 -5.202522	
6.1875	 -5.251517	
6.25	 -5.219815	
6.3125	 -5.166275	
6.375	 -5.186175	
6.4375	 -5.205490	
6.5	 -5.186769	
6.5625	 -5.205180	
6.625	 -5.192925	
6.6875	 -5.147072	
6.75	 -5.182347	
6.8125	 -5.197497	
6.875	 -5.141738	
6.9375	 -5.153209	
7	 -5.195099	
7.0625	 -5.187540	
7.125	 -5.197193	
7.1875	 -5.247167	
7.25	 -5.291124	
7.3125	 -5.289619	
7.375	 -5.252877	
7.4375	 -5.238103	
7.5	 -5.250565	
7.5625	 -5.263780	
7.625	 -5.269899	
7.6875	 -5.265426	
7.75	 -5.275908	
7.8125	 -5.292305	
7.875	 -5.272180	
7.9375	 -5.255821	
8	 -5.269958	
8.0625	 -5.270467	
8.125	 -5.269302	
8.1875	 -5.280837	
8.25	 -5.283481	
8.3125	 -5.287364	
8.375	 -5.271782	
8.4375	 -5.239842	
8.5	 -5.229764	
8.5625	 -5.204628	
8.625	 -5.192873	
8.6875	 -5.211283	
8.75	 -5.179293	
8.8125	 -5.170498	
8.875	 -5.208568	
8.9375	 -5.185494	
9	 -5.159896	
9.0625	 -5.180832	
9.125	 -5.193615	
9.1875	 -5.181181	
9.25	 -5.155997	
9.3125	 -5.176438	
9.375	 -5.223704	
9.4375	 -5.202198	
9.5	 -5.176095	
9.5625	 -5.195004	
9.625	 -5.177854	
9.6875	 -5.170059	
9.75	 -5.192898	
9.8125	 -5.165128	
9.875	 -5.138550	
9.9375	 -5.172849	
